<svg xmlns="http://www.w3.org/2000/svg" xmlns:xlink="http://www.w3.org/1999/xlink" width="1366" zoomAndPan="magnify" viewBox="0 0 1024.5 399.75" height="533" preserveAspectRatio="xMidYMid meet" version="1.0"><defs><g/></defs><g fill="#19090b" fill-opacity="1"><g transform="translate(99.88679, 169.0193)"><g><path d="M 9.0625 -129.859375 L 57.6875 -129.859375 L 57.6875 -112.1875 L 32.15625 -112.1875 L 32.15625 21.59375 L 57.6875 21.59375 L 57.6875 39.265625 L 9.0625 39.265625 Z M 9.0625 -129.859375 "/></g></g></g><g fill="#19090b" fill-opacity="1"><g transform="translate(166.62158, 169.0193)"><g><path d="M 18.125 -114.765625 L 18.125 -90 L 6.03125 -90 L 6.03125 -114.765625 Z M 18.125 -114.765625 "/></g></g></g><g fill="#19090b" fill-opacity="1"><g transform="translate(190.778968, 169.0193)"><g><path d="M 37.453125 -77.3125 L 37.453125 0 L 9.0625 0 L 9.0625 -124.578125 L 37.453125 -124.578125 L 86.96875 -47.265625 L 87.28125 -47.265625 L 87.28125 -124.578125 L 115.671875 -124.578125 L 115.671875 0 L 87.28125 0 L 37.75 -77.3125 Z M 37.453125 -77.3125 "/></g></g></g><g fill="#19090b" fill-opacity="1"><g transform="translate(315.491477, 169.0193)"><g><path d="M 59.046875 -10.265625 C 71.117188 -10.265625 79.972656 -13.5625 85.609375 -20.15625 C 91.253906 -26.75 94.078125 -35.785156 94.078125 -47.265625 C 94.078125 -57.328125 92.210938 -66.4375 88.484375 -74.59375 C 84.765625 -82.75 78.222656 -90.195312 68.859375 -96.9375 L 68.859375 -107.8125 L 112.34375 -107.8125 L 112.34375 -95.890625 L 85.46875 -95.890625 C 91.90625 -90.953125 97.335938 -84.351562 101.765625 -76.09375 C 106.203125 -67.84375 108.421875 -58.082031 108.421875 -46.8125 C 108.421875 -36.945312 106.503906 -28.390625 102.671875 -21.140625 C 98.847656 -13.890625 93.257812 -8.273438 85.90625 -4.296875 C 78.5625 -0.328125 69.609375 1.65625 59.046875 1.65625 C 48.367188 1.65625 39.351562 -0.300781 32 -4.21875 C 24.65625 -8.144531 19.070312 -13.734375 15.25 -20.984375 C 11.425781 -28.234375 9.515625 -36.789062 9.515625 -46.65625 C 9.515625 -58.03125 11.703125 -67.84375 16.078125 -76.09375 C 20.460938 -84.351562 25.875 -90.953125 32.3125 -95.890625 L 5.59375 -95.890625 L 5.59375 -107.8125 L 49.078125 -107.8125 L 49.078125 -96.9375 C 39.710938 -90.289062 33.140625 -82.84375 29.359375 -74.59375 C 25.585938 -66.34375 23.703125 -57.234375 23.703125 -47.265625 C 23.703125 -35.785156 26.546875 -26.75 32.234375 -20.15625 C 37.921875 -13.5625 46.859375 -10.265625 59.046875 -10.265625 Z M 59.046875 -10.265625 "/></g></g></g><g fill="#19090b" fill-opacity="1"><g transform="translate(433.560715, 169.0193)"><g><path d="M 37.453125 -124.578125 L 37.453125 -24.921875 L 80.328125 -24.921875 L 80.328125 0 L 9.0625 0 L 9.0625 -124.578125 Z M 37.453125 -124.578125 "/></g></g></g><g fill="#19090b" fill-opacity="1"><g transform="translate(518.866508, 169.0193)"><g><path d="M 37.453125 -124.578125 L 37.453125 0 L 9.0625 0 L 9.0625 -124.578125 Z M 37.453125 -124.578125 "/></g></g></g><g fill="#19090b" fill-opacity="1"><g transform="translate(565.369467, 169.0193)"><g><path d="M 26.28125 -32.3125 C 31.101562 -32.3125 35.203125 -30.625 38.578125 -27.25 C 41.953125 -23.882812 43.640625 -19.785156 43.640625 -14.953125 C 43.640625 -10.222656 41.953125 -6.171875 38.578125 -2.796875 C 35.203125 0.578125 31.101562 2.265625 26.28125 2.265625 C 21.539062 2.265625 17.484375 0.578125 14.109375 -2.796875 C 10.742188 -6.171875 9.0625 -10.222656 9.0625 -14.953125 C 9.0625 -19.785156 10.742188 -23.882812 14.109375 -27.25 C 17.484375 -30.625 21.539062 -32.3125 26.28125 -32.3125 Z M 26.28125 -32.3125 "/></g></g></g><g fill="#19090b" fill-opacity="1"><g transform="translate(618.062786, 169.0193)"><g><path d="M 47.40625 -109.328125 C 54.863281 -109.328125 61.5625 -108.242188 67.5 -106.078125 C 73.4375 -103.910156 78.46875 -101.269531 82.59375 -98.15625 L 76.109375 -88.9375 C 72.078125 -91.65625 67.945312 -93.867188 63.71875 -95.578125 C 59.488281 -97.296875 54.15625 -98.15625 47.71875 -98.15625 C 41.675781 -98.15625 36.742188 -96.691406 32.921875 -93.765625 C 29.097656 -90.847656 27.1875 -86.671875 27.1875 -81.234375 C 27.1875 -75.191406 29.597656 -70.382812 34.421875 -66.8125 C 39.253906 -63.238281 46.554688 -61.453125 56.328125 -61.453125 L 70.96875 -61.453125 L 70.96875 -50.125 L 55.5625 -50.125 C 45.09375 -50.125 36.9375 -48.5625 31.09375 -45.4375 C 25.257812 -42.320312 22.34375 -37.34375 22.34375 -30.5 C 22.34375 -23.851562 24.785156 -18.71875 29.671875 -15.09375 C 34.554688 -11.46875 41.578125 -9.65625 50.734375 -9.65625 C 56.273438 -9.65625 61.890625 -10.410156 67.578125 -11.921875 C 73.265625 -13.429688 78.421875 -15.296875 83.046875 -17.515625 L 83.046875 -5.140625 C 78.515625 -2.921875 73.53125 -1.253906 68.09375 -0.140625 C 62.664062 0.960938 56.628906 1.515625 49.984375 1.515625 C 39.816406 1.515625 31.6875 0.179688 25.59375 -2.484375 C 19.5 -5.160156 15.066406 -8.835938 12.296875 -13.515625 C 9.535156 -18.191406 8.15625 -23.5 8.15625 -29.4375 C 8.15625 -37.09375 10.519531 -43.1875 15.25 -47.71875 C 19.976562 -52.25 26.875 -55.117188 35.9375 -56.328125 L 35.9375 -56.921875 C 28.988281 -58.128906 23.453125 -60.875 19.328125 -65.15625 C 15.203125 -69.4375 13.140625 -75.25 13.140625 -82.59375 C 13.140625 -90.34375 16.054688 -96.734375 21.890625 -101.765625 C 27.734375 -106.804688 36.238281 -109.328125 47.40625 -109.328125 Z M 47.40625 -109.328125 "/></g></g></g><g fill="#19090b" fill-opacity="1"><g transform="translate(706.841199, 169.0193)"><g><path d="M 122.46875 0 L 83.359375 0 L 37.453125 -52.84375 L 37.453125 0 L 9.0625 0 L 9.0625 -124.578125 L 37.453125 -124.578125 L 37.453125 -73.6875 L 80.1875 -124.578125 L 114.609375 -124.578125 L 64.484375 -65.53125 Z M 122.46875 0 "/></g></g></g><g fill="#19090b" fill-opacity="1"><g transform="translate(822.64551, 169.0193)"><g><path d="M 54.96875 -126.84375 C 61.707031 -126.84375 68.296875 -125.859375 74.734375 -123.890625 C 81.179688 -121.929688 85.96875 -119.992188 89.09375 -118.078125 L 93.625 -115.0625 L 82.140625 -92.40625 C 81.234375 -93.007812 79.972656 -93.789062 78.359375 -94.75 C 76.753906 -95.707031 73.738281 -96.988281 69.3125 -98.59375 C 64.882812 -100.207031 60.753906 -101.015625 56.921875 -101.015625 C 52.191406 -101.015625 48.539062 -100.007812 45.96875 -98 C 43.40625 -95.988281 42.125 -93.269531 42.125 -89.84375 C 42.125 -88.132812 42.726562 -86.550781 43.9375 -85.09375 C 45.144531 -83.632812 47.207031 -82.070312 50.125 -80.40625 C 53.050781 -78.75 55.617188 -77.414062 57.828125 -76.40625 C 60.046875 -75.394531 63.46875 -73.882812 68.09375 -71.875 C 76.15625 -68.445312 83.03125 -63.789062 88.71875 -57.90625 C 94.40625 -52.019531 97.25 -45.351562 97.25 -37.90625 C 97.25 -30.757812 95.960938 -24.515625 93.390625 -19.171875 C 90.828125 -13.835938 87.304688 -9.660156 82.828125 -6.640625 C 78.347656 -3.617188 73.390625 -1.378906 67.953125 0.078125 C 62.515625 1.535156 56.625 2.265625 50.28125 2.265625 C 44.84375 2.265625 39.503906 1.707031 34.265625 0.59375 C 29.035156 -0.507812 24.660156 -1.890625 21.140625 -3.546875 C 17.617188 -5.210938 14.445312 -6.847656 11.625 -8.453125 C 8.8125 -10.066406 6.75 -11.425781 5.4375 -12.53125 L 3.46875 -14.1875 L 17.671875 -38.046875 C 18.878906 -37.046875 20.539062 -35.765625 22.65625 -34.203125 C 24.769531 -32.640625 28.519531 -30.550781 33.90625 -27.9375 C 39.289062 -25.320312 44.046875 -24.015625 48.171875 -24.015625 C 60.148438 -24.015625 66.140625 -28.085938 66.140625 -36.234375 C 66.140625 -37.953125 65.710938 -39.539062 64.859375 -41 C 64.003906 -42.457031 62.492188 -43.914062 60.328125 -45.375 C 58.160156 -46.832031 56.242188 -47.988281 54.578125 -48.84375 C 52.921875 -49.695312 50.203125 -51.003906 46.421875 -52.765625 C 42.648438 -54.535156 39.859375 -55.875 38.046875 -56.78125 C 30.503906 -60.5 24.664062 -65.148438 20.53125 -70.734375 C 16.40625 -76.328125 14.34375 -82.34375 14.34375 -88.78125 C 14.34375 -99.957031 18.46875 -109.09375 26.71875 -116.1875 C 34.976562 -123.289062 44.394531 -126.84375 54.96875 -126.84375 Z M 54.96875 -126.84375 "/></g></g></g><g fill="#19090b" fill-opacity="1"><g transform="translate(193.496213, 312.179763)"><g><path d="M 104.640625 0 L 84.71875 -69.90625 L 64.78125 0 L 33.21875 0 L -2.265625 -124.578125 L 29.296875 -124.578125 L 50.578125 -39.109375 L 51.34375 -39.109375 L 73.984375 -124.578125 L 95.4375 -124.578125 L 118.078125 -39.109375 L 118.84375 -39.109375 L 140.125 -124.578125 L 171.53125 -124.578125 L 136.046875 0 Z M 104.640625 0 "/></g></g></g><g fill="#19090b" fill-opacity="1"><g transform="translate(349.008538, 312.179763)"><g><path d="M 72.328125 -124.578125 L 122.609375 0 L 92.109375 0 L 82.90625 -24.921875 L 35.484375 -24.921875 L 26.28125 0 L -4.234375 0 L 46.0625 -124.578125 Z M 73.234375 -49.828125 L 59.34375 -86.0625 L 59.046875 -86.0625 L 45.15625 -49.828125 Z M 73.234375 -49.828125 "/></g></g></g><g fill="#19090b" fill-opacity="1"><g transform="translate(467.379739, 312.179763)"><g><path d="M 36.84375 0 L 7.25 0 L 7.25 -7.25 L 16.15625 -9.0625 L 16.15625 -72.03125 L 7.25 -73.84375 L 7.25 -81.09375 L 36.84375 -81.09375 L 36.84375 -73.84375 L 27.9375 -72.03125 L 27.9375 -9.0625 L 36.84375 -7.25 Z M 36.84375 0 "/></g></g></g><g fill="#19090b" fill-opacity="1"><g transform="translate(511.315978, 312.179763)"><g/></g></g><g fill="#19090b" fill-opacity="1"><g transform="translate(552.534522, 312.179763)"><g><path d="M 113.703125 -124.578125 L 51.9375 -24.921875 L 109.625 -24.921875 L 109.625 0 L 2.421875 0 L 64.03125 -99.65625 L 11.171875 -99.65625 L 11.171875 -124.578125 Z M 113.703125 -124.578125 "/></g></g></g><g fill="#19090b" fill-opacity="1"><g transform="translate(668.640953, 312.179763)"><g><path d="M 37.453125 -124.578125 L 37.453125 0 L 9.0625 0 L 9.0625 -124.578125 Z M 37.453125 -124.578125 "/></g></g></g><g fill="#19090b" fill-opacity="1"><g transform="translate(715.143955, 312.179763)"><g><path d="M 24.3125 -59.953125 L 10.875 -80.9375 L 37.75 -80.9375 Z M 10.875 0 L 24.3125 -20.984375 L 37.75 0 Z M 10.875 0 "/></g></g></g><g fill="#19090b" fill-opacity="1"><g transform="translate(763.760693, 312.179763)"><g><path d="M 9.0625 21.59375 L 34.578125 21.59375 L 34.578125 -112.1875 L 9.0625 -112.1875 L 9.0625 -129.859375 L 57.6875 -129.859375 L 57.6875 39.265625 L 9.0625 39.265625 Z M 9.0625 21.59375 "/></g></g></g></svg>